<?xml version="1.0" encoding="utf-8"?>
<!-- Generator: Adobe Illustrator 20.1.0, SVG Export Plug-In . SVG Version: 6.00 Build 0)  -->
<svg version="1.1" id="Capa_1" xmlns="http://www.w3.org/2000/svg" xmlns:xlink="http://www.w3.org/1999/xlink" x="0px" y="0px"
	 viewBox="0 0 642.1 196.3" style="enable-background:new 0 0 642.1 196.3;" xml:space="preserve">
<style type="text/css">
	.st0{fill:#FFFFFF;}
</style>
<title>Asset 1</title>
<path class="st0" d="M311,132.7c0,13.8,0,27.3,0,40.7c0,4-0.1,8,0,12c0,2.6-1.1,4.3-3.7,4.3c-2.4,0-3.5-1.6-3.5-4c0-20,0-40,0-60
	c-0.2-2.4,1.4-4.7,3.8-5.3c2.7-0.8,5.4-0.6,7.1,2c1.2,2,2.3,4,3.3,6.1c8,16.2,16.1,32.4,24.8,50c0.1-3,0.3-4.5,0.3-6
	c0-15.5,0-31,0-46.5c0-2.7,0-5.4,3.4-5.6c3.7-0.3,4.2,2.7,4.2,5.4c0,18.8,0,37.7,0,56.5c0,3.4-0.6,6.8-4.9,7.6s-6.3-1.8-8-5.2
	c-7.8-16-15.7-31.9-23.7-47.7C313.4,135.6,313.1,133.9,311,132.7z M359.8,155c0-7.7,0-15.3,0-23c0.1-7.4,2.3-10.3,9.8-11.3
	c8.3-1.1,16.6-0.3,24.9-0.4c1.8-0.2,3.5,1.2,3.6,3c0,0.3,0,0.5,0,0.8c-0.1,2.7-2,3.2-4.1,3.2c-6.8,0-13.6,0-20.5,0
	c-6,0-6.6,0.6-6.6,6.6c0,3.7,0.2,7.4-0.1,11s0.7,5.3,4.9,5.1c7.3-0.4,14.6-0.1,22-0.1c2.3,0,4.5,0.1,4.5,3.2s-1.8,3.9-4.5,3.8
	c-7.5-0.1-15,0.1-22.5-0.1c-3.1-0.1-4.5,0.6-4.3,4.1c0.3,5.3,0.2,10.7,0,16c-0.1,4.1,1.7,5.7,5.7,5.6c6.8-0.1,13.6-0.1,20.5,0
	c2.3,0,5-0.1,5.1,3.2s-2.4,4-5.1,4c-7.5-0.1-15,0.2-22.5-0.4c-8.3-0.7-10.7-3.7-10.7-11.9C359.8,170,359.8,162.5,359.8,155
	L359.8,155z M421.4,158.1c0-9-0.1-18,0-27c0-2.8-0.8-3.9-3.7-3.7c-3.8,0.2-7.6,0.1-11.5,0c-2.1-0.1-4-0.5-4.1-3.3s1.8-3.8,4.2-3.9
	c12.8-0.1,25.6-0.1,38.5,0c2.4,0,4.2,0.9,4.2,3.7c0,3-2,3.4-4.4,3.4c-4,0-8,0.2-12-0.1c-3.6-0.2-4.5,1.1-4.4,4.6
	c0.2,17.1,0.1,34.3,0,51.4c0,2.7,0.9,6.4-3.5,6.2c-4.1-0.2-3.4-3.7-3.5-6.5C421.3,174.8,421.3,166.4,421.4,158.1L421.4,158.1z"/>
<path class="st0" d="M583.4,76.9c10.7-1.2,18.3-11,16.9-21.9c-1.2-8.9-8-16-16.9-16.9h-7.1c-2.4,0.3-4.1,2.1-4.1,4.4v30.2
	c0.3,2.4,2.1,4.1,4.4,4.1h6.8L583.4,76.9L583.4,76.9z"/>
<path class="st0" d="M640.8,73.6c-0.3,0-0.6,0-0.9,0.6c-17.2,41.7-64.8,35.2-64.8,35.2s-3.3,0.6-3.6,2.7v31.1c0,2.1-1.2,2.4-2.4,2.7
	c-30.5,1.2-38.5-19.2-38.5-33.4c0-3.8-0.3-6.5-0.3-7.1V23.9c-0.3-1.2,0.6-2.4,2.1-2.7c0.3,0,0.3,0,0.6,0h16.3c4.7,0,5.9-0.3,8.6-3
	l13.6-14.5C573,2,570.7,2,570.7,2h-72.8C488.1,2,486,8.8,486,13v98.8c0,10.4-0.3,73.1,71.6,73.1h68.7c11,0,14.8-7.4,14.8-13.6V74.5
	C641.1,74.5,641.1,73.9,640.8,73.6"/>
<path class="st0" d="M0.1,76.3V11.2c-0.6-3.8,2.4-7.4,6.2-8c0.6,0,1.2,0,1.5,0H33c17.8,0,28.4,10.7,28.4,26.3S50.7,55.9,32.9,55.9
	H18.4c-0.3,0-0.6,0.3-0.6,0.6l0,0v19.8c0.6,4.7-3,8.9-7.7,9.5c-0.3,0-0.9,0-1.2,0c-4.7,0.3-8.6-3.6-8.9-8.3
	C0.1,77.2,0.1,76.6,0.1,76.3z M43.9,29.5c0-6.5-4.4-11-11.8-11H18.4c-0.3,0-0.6,0.3-0.6,0.6v20.4c0,0.3,0.3,0.6,0.6,0.6h13.3
	C39.4,40.5,43.9,36.3,43.9,29.5z"/>
<path class="st0" d="M67.8,76.9V35.1c-0.3-4.4,3.3-8.6,7.7-8.9c0.3,0,0.3,0,0.6,0c4.1-0.3,7.7,2.7,8.3,6.5l0,0
	c3.6-4.7,8.9-7.1,14.8-7.1c2.1,0,4.1,0.3,6.2,1.2c2.7,1.2,4.4,3.8,4.4,6.8c0.3,4.4-3,8.3-7.4,8.6c-0.3,0-0.6,0-0.9,0l-3.8-0.6
	L93.3,41c-6.2,0-8.9,4.4-8.9,12.1v23.7c0,4.7-3.8,8.6-8.6,8.6c-4.7,0-8.6-3.8-8.6-8.6L67.8,76.9L67.8,76.9z"/>
<path class="st0" d="M111.4,69.8c-1.2-4.4-2.1-8.9-1.8-13.6c-0.3-4.7,0.6-9.2,1.8-13.6c3.3-11,12.4-16.9,25.2-16.9
	s21.6,5.9,25.2,16.6c1.2,4.4,2.1,8.9,1.8,13.6c0.3,4.7-0.6,9.2-1.8,13.6C158.1,80.1,149.2,86,136.5,86S114.6,80.4,111.4,69.8z
	 M145.7,65.9c0.9-3.3,1.2-6.5,1.2-9.8s-0.3-6.5-1.2-9.8c-1.5-5-6.8-7.7-11.8-6.2c-3,0.9-5.3,3.3-6.2,6.2c-0.9,3.3-1.2,6.5-1.2,9.8
	s0.3,6.5,1.2,9.8c1.5,5,6.8,7.7,11.8,6.2C142.4,71.3,144.8,68.9,145.7,65.9z"/>
<path class="st0" d="M181.8,75.4l-15.1-37.3c-0.6-1.2-0.9-2.7-0.9-3.8c0.6-4.4,4.4-8,9.2-7.4c3,0.3,5.6,2.4,6.8,5.3L193,62.7h0.3
	l11-30.8c0.6-4.4,4.7-7.4,9.2-7.1c4.4,0.6,7.4,4.7,6.8,9.2l0,0c0,1.2-0.3,2.7-0.9,3.8l-15.1,37.6c-3.3,7.7-5.6,10.4-11.2,10.4
	C187.4,85.8,185,83.1,181.8,75.4z"/>
<path class="st0" d="M225.3,11.5c0-5.3,4.1-9.5,9.5-9.5c5.3,0,9.5,4.1,9.5,9.5s-4.1,9.5-9.5,9.5C229.4,20.9,225.3,16.8,225.3,11.5z
	 M226.5,76.9V35.1c0-4.7,3.8-8.3,8.3-8.3s8.3,3.8,8.3,8.3v41.7c0,4.7-3.8,8.3-8.3,8.3S226.5,81.6,226.5,76.9z"/>
<path class="st0" d="M288.6,76.9V50.5c0-6.5-3.3-10.7-9.2-10.7s-8.9,4.1-8.9,10.7v26.3c0,4.7-3.8,8.3-8.3,8.3
	c-4.4,0-8.3-3.8-8.3-8.3V35.1c-0.3-4.4,3.3-8.6,7.7-8.9c0.3,0,0.3,0,0.6,0c3.8,0,7.1,2.4,8,6.2l0,0c3.8-4.7,9.8-7.1,15.7-6.8
	c12.7,0,19.8,8.9,19.8,21.6v29.6c0,4.7-3.8,8.3-8.3,8.3C293.1,85.2,288.6,81.6,288.6,76.9z"/>
<path class="st0" d="M314.4,69.8c-1.5-4.4-2.1-9.2-1.8-13.9c-0.3-4.7,0.3-9.5,1.8-13.9c3.6-11,12.4-16.6,24.9-16.6
	c6.8-0.3,13.3,2.1,18.3,6.5c2.1,1.8,3.3,4.1,3.3,6.8c0,3.8-3.3,7.1-7.1,7.1h-0.3c-2.7-0.3-5-1.5-6.8-3.6c-1.8-1.8-4.4-2.7-7.1-2.7
	c-4.1-0.3-8,2.4-8.9,6.5c-0.9,3.3-1.2,6.5-1.2,9.8s0.3,6.5,1.2,9.8c0.9,4.1,4.7,6.8,8.9,6.5c2.7,0,5.3-0.9,7.1-2.7
	c1.8-2.1,4.1-3.3,6.8-3.6c3.8-0.3,7.1,3,7.4,6.8V73c0,2.7-1.2,5-3.3,6.8c-5,4.4-11.5,6.8-18.3,6.5C326.8,86.3,317.9,80.7,314.4,69.8
	z"/>
<path class="st0" d="M366.8,11.5c0-5.3,4.1-9.5,9.5-9.5s9.5,4.1,9.5,9.5s-4.1,9.5-9.5,9.5S366.8,16.8,366.8,11.5z M367.9,76.9V35.1
	c0-4.7,3.8-8.3,8.3-8.3c4.4,0,8.3,3.8,8.3,8.3v41.7c0,4.7-3.8,8.3-8.3,8.3C371.8,85.2,367.9,81.6,367.9,76.9z"/>
<path class="st0" d="M448.1,78.1c-0.3,4.7-4.4,8.3-9.2,7.7c-2.4-0.3-4.7-1.5-6.2-3.3l-1.5-2.1l0,0c-3,3.8-9.2,5.9-16.6,5.9
	c-14.8,0-22.2-6.8-22.2-17.8s9.5-18.6,24-18.6h10.4c0.3,0,0.6-0.3,0.6-0.6v-0.6c0-5.3-3.8-8.6-11.8-8.6c-3.3,0-6.5,0.6-9.5,1.8
	l-3.8,0.9c-3.6,0.3-6.5-2.7-6.8-6.2c0-0.3,0-0.3,0-0.6c0-3,1.8-5.6,4.4-6.8c5.6-2.4,11.5-3.6,17.8-3.3c17.5,0,26,8.9,26,23.4v16
	c-0.3,2.1,0.3,3.8,1.2,5.6l1.5,2.7C447.3,74.8,447.8,76.6,448.1,78.1z M428,65.9v-4.1c0-0.3-0.3-0.6-0.6-0.6h-8.3
	c-7.1,0-10.4,2.1-10.4,6.5s3,6.2,8.3,6.2s11-3,11-8.3V65.9z"/>
</svg>
