<?xml version="1.0" encoding="UTF-8" standalone="no"?>
<!-- Generator: Adobe Illustrator 20.1.0, SVG Export Plug-In . SVG Version: 6.00 Build 0)  -->

<svg
   xmlns:dc="http://purl.org/dc/elements/1.1/"
   xmlns:cc="http://creativecommons.org/ns#"
   xmlns:rdf="http://www.w3.org/1999/02/22-rdf-syntax-ns#"
   xmlns:svg="http://www.w3.org/2000/svg"
   xmlns="http://www.w3.org/2000/svg"
   xmlns:sodipodi="http://sodipodi.sourceforge.net/DTD/sodipodi-0.dtd"
   xmlns:inkscape="http://www.inkscape.org/namespaces/inkscape"
   version="1.1"
   id="Capa_1"
   x="0px"
   y="0px"
   viewBox="0 0 642.1 196.3"
   xml:space="preserve"
   inkscape:version="0.91 r13725"
   sodipodi:docname="logo-blanco.svg"
   class="logo-svg"
   width="642.09998"
   height="196.3"><metadata
     id="metadata35"><rdf:RDF><cc:Work
         rdf:about=""><dc:format>image/svg+xml</dc:format><dc:type
           rdf:resource="http://purl.org/dc/dcmitype/StillImage" /></cc:Work></rdf:RDF></metadata><defs
     id="defs33" /><sodipodi:namedview
     pagecolor="#ffffff"
     bordercolor="#666666"
     borderopacity="1"
     objecttolerance="10"
     gridtolerance="10"
     guidetolerance="10"
     inkscape:pageopacity="0"
     inkscape:pageshadow="2"
     inkscape:window-width="640"
     inkscape:window-height="480"
     id="namedview31"
     showgrid="false"
     inkscape:zoom="0.57000469"
     inkscape:cx="319.29562"
     inkscape:cy="98.150002"
     inkscape:current-layer="Capa_1" /><style
     type="text/css"
     id="style3">
	.st0{fill:#3EAAE5;}
	.st1{fill:#FFFFFF;}
</style><title
     id="title5">Asset 1</title><path
     class="st0"
     d="m 311,132.7 c 0,13.8 0,27.3 0,40.7 0,4 -0.1,8 0,12 0,2.6 -1.1,4.3 -3.7,4.3 -2.4,0 -3.5,-1.6 -3.5,-4 0,-20 0,-40 0,-60 -0.2,-2.4 1.4,-4.7 3.8,-5.3 2.7,-0.8 5.4,-0.6 7.1,2 1.2,2 2.3,4 3.3,6.1 8,16.2 16.1,32.4 24.8,50 0.1,-3 0.3,-4.5 0.3,-6 0,-15.5 0,-31 0,-46.5 0,-2.7 0,-5.4 3.4,-5.6 3.7,-0.3 4.2,2.7 4.2,5.4 0,18.8 0,37.7 0,56.5 0,3.4 -0.6,6.8 -4.9,7.6 -4.3,0.8 -6.3,-1.8 -8,-5.2 -7.8,-16 -15.7,-31.9 -23.7,-47.7 -0.7,-1.4 -1,-3.1 -3.1,-4.3 z m 48.8,22.3 c 0,-7.7 0,-15.3 0,-23 0.1,-7.4 2.3,-10.3 9.8,-11.3 8.3,-1.1 16.6,-0.3 24.9,-0.4 1.8,-0.2 3.5,1.2 3.6,3 0,0.3 0,0.5 0,0.8 -0.1,2.7 -2,3.2 -4.1,3.2 -6.8,0 -13.6,0 -20.5,0 -6,0 -6.6,0.6 -6.6,6.6 0,3.7 0.2,7.4 -0.1,11 -0.3,3.6 0.7,5.3 4.9,5.1 7.3,-0.4 14.6,-0.1 22,-0.1 2.3,0 4.5,0.1 4.5,3.2 0,3.1 -1.8,3.9 -4.5,3.8 -7.5,-0.1 -15,0.1 -22.5,-0.1 -3.1,-0.1 -4.5,0.6 -4.3,4.1 0.3,5.3 0.2,10.7 0,16 -0.1,4.1 1.7,5.7 5.7,5.6 6.8,-0.1 13.6,-0.1 20.5,0 2.3,0 5,-0.1 5.1,3.2 0.1,3.3 -2.4,4 -5.1,4 -7.5,-0.1 -15,0.2 -22.5,-0.4 -8.3,-0.7 -10.7,-3.7 -10.7,-11.9 -0.1,-7.4 -0.1,-14.9 -0.1,-22.4 l 0,0 z m 61.6,3.1 c 0,-9 -0.1,-18 0,-27 0,-2.8 -0.8,-3.9 -3.7,-3.7 -3.8,0.2 -7.6,0.1 -11.5,0 -2.1,-0.1 -4,-0.5 -4.1,-3.3 -0.1,-2.8 1.8,-3.8 4.2,-3.9 12.8,-0.1 25.6,-0.1 38.5,0 2.4,0 4.2,0.9 4.2,3.7 0,3 -2,3.4 -4.4,3.4 -4,0 -8,0.2 -12,-0.1 -3.6,-0.2 -4.5,1.1 -4.4,4.6 0.2,17.1 0.1,34.3 0,51.4 0,2.7 0.9,6.4 -3.5,6.2 -4.1,-0.2 -3.4,-3.7 -3.5,-6.5 0.1,-8.1 0.1,-16.5 0.2,-24.8 l 0,0 z"
     id="path7"
     inkscape:connector-curvature="0"
     style="fill:#3eaae5" /><path
     class="st0"
     d="m 583.4,76.9 c 10.7,-1.2 18.3,-11 16.9,-21.9 -1.2,-8.9 -8,-16 -16.9,-16.9 l -7.1,0 c -2.4,0.3 -4.1,2.1 -4.1,4.4 l 0,30.2 c 0.3,2.4 2.1,4.1 4.4,4.1 l 6.8,0 0,0.1 z"
     id="path9"
     inkscape:connector-curvature="0"
     style="fill:#3eaae5" /><path
     class="st0"
     d="m 640.8,73.6 c -0.3,0 -0.6,0 -0.9,0.6 -17.2,41.7 -64.8,35.2 -64.8,35.2 0,0 -3.3,0.6 -3.6,2.7 l 0,31.1 c 0,2.1 -1.2,2.4 -2.4,2.7 -30.5,1.2 -38.5,-19.2 -38.5,-33.4 0,-3.8 -0.3,-6.5 -0.3,-7.1 l 0,-81.5 c -0.3,-1.2 0.6,-2.4 2.1,-2.7 0.3,0 0.3,0 0.6,0 l 16.3,0 c 4.7,0 5.9,-0.3 8.6,-3 L 571.5,3.7 C 573,2 570.7,2 570.7,2 L 497.9,2 C 488.1,2 486,8.8 486,13 l 0,98.8 c 0,10.4 -0.3,73.1 71.6,73.1 l 68.7,0 c 11,0 14.8,-7.4 14.8,-13.6 l 0,-96.8 c 0,0 0,-0.6 -0.3,-0.9"
     id="path11"
     inkscape:connector-curvature="0"
     style="fill:#3eaae5" /><g
     id="g3363"
     class="logo-letters"><path
       id="path13"
       d="m 0.1,76.3 0,-65.1 c -0.6,-3.8 2.4,-7.4 6.2,-8 0.6,0 1.2,0 1.5,0 l 25.2,0 c 17.8,0 28.4,10.7 28.4,26.3 0,15.6 -10.7,26.4 -28.5,26.4 l -14.5,0 c -0.3,0 -0.6,0.3 -0.6,0.6 l 0,0 0,19.8 c 0.6,4.7 -3,8.9 -7.7,9.5 -0.3,0 -0.9,0 -1.2,0 C 4.2,86.1 0.3,82.2 0,77.5 0.1,77.2 0.1,76.6 0.1,76.3 Z M 43.9,29.5 c 0,-6.5 -4.4,-11 -11.8,-11 l -13.7,0 c -0.3,0 -0.6,0.3 -0.6,0.6 l 0,20.4 c 0,0.3 0.3,0.6 0.6,0.6 l 13.3,0 c 7.7,0.4 12.2,-3.8 12.2,-10.6 z"
       class="st1"
       inkscape:connector-curvature="0"
       style="fill:#ffffff" /><path
       id="path15"
       d="m 67.8,76.9 0,-41.8 c -0.3,-4.4 3.3,-8.6 7.7,-8.9 0.3,0 0.3,0 0.6,0 4.1,-0.3 7.7,2.7 8.3,6.5 l 0,0 c 3.6,-4.7 8.9,-7.1 14.8,-7.1 2.1,0 4.1,0.3 6.2,1.2 2.7,1.2 4.4,3.8 4.4,6.8 0.3,4.4 -3,8.3 -7.4,8.6 -0.3,0 -0.6,0 -0.9,0 L 97.7,41.6 93.3,41 c -6.2,0 -8.9,4.4 -8.9,12.1 l 0,23.7 c 0,4.7 -3.8,8.6 -8.6,8.6 -4.7,0 -8.6,-3.8 -8.6,-8.6 l 0.6,0.1 0,0 z"
       class="st1"
       inkscape:connector-curvature="0"
       style="fill:#ffffff" /><path
       id="path17"
       d="m 111.4,69.8 c -1.2,-4.4 -2.1,-8.9 -1.8,-13.6 -0.3,-4.7 0.6,-9.2 1.8,-13.6 3.3,-11 12.4,-16.9 25.2,-16.9 12.8,0 21.6,5.9 25.2,16.6 1.2,4.4 2.1,8.9 1.8,13.6 0.3,4.7 -0.6,9.2 -1.8,13.6 C 158.1,80.1 149.2,86 136.5,86 123.8,86 114.6,80.4 111.4,69.8 Z m 34.3,-3.9 c 0.9,-3.3 1.2,-6.5 1.2,-9.8 0,-3.3 -0.3,-6.5 -1.2,-9.8 -1.5,-5 -6.8,-7.7 -11.8,-6.2 -3,0.9 -5.3,3.3 -6.2,6.2 -0.9,3.3 -1.2,6.5 -1.2,9.8 0,3.3 0.3,6.5 1.2,9.8 1.5,5 6.8,7.7 11.8,6.2 2.9,-0.8 5.3,-3.2 6.2,-6.2 z"
       class="st1"
       inkscape:connector-curvature="0"
       style="fill:#ffffff" /><path
       id="path19"
       d="M 181.8,75.4 166.7,38.1 c -0.6,-1.2 -0.9,-2.7 -0.9,-3.8 0.6,-4.4 4.4,-8 9.2,-7.4 3,0.3 5.6,2.4 6.8,5.3 l 11.2,30.5 0.3,0 11,-30.8 c 0.6,-4.4 4.7,-7.4 9.2,-7.1 4.4,0.6 7.4,4.7 6.8,9.2 l 0,0 c 0,1.2 -0.3,2.7 -0.9,3.8 l -15.1,37.6 c -3.3,7.7 -5.6,10.4 -11.2,10.4 -5.7,0 -8.1,-2.7 -11.3,-10.4 z"
       class="st1"
       inkscape:connector-curvature="0"
       style="fill:#ffffff" /><path
       id="path21"
       d="m 225.3,11.5 c 0,-5.3 4.1,-9.5 9.5,-9.5 5.3,0 9.5,4.1 9.5,9.5 0,5.4 -4.1,9.5 -9.5,9.5 -5.4,-0.1 -9.5,-4.2 -9.5,-9.5 z m 1.2,65.4 0,-41.8 c 0,-4.7 3.8,-8.3 8.3,-8.3 4.5,0 8.3,3.8 8.3,8.3 l 0,41.7 c 0,4.7 -3.8,8.3 -8.3,8.3 -4.5,0 -8.3,-3.5 -8.3,-8.2 z"
       class="st1"
       inkscape:connector-curvature="0"
       style="fill:#ffffff" /><path
       id="path23"
       d="m 288.6,76.9 0,-26.4 c 0,-6.5 -3.3,-10.7 -9.2,-10.7 -5.9,0 -8.9,4.1 -8.9,10.7 l 0,26.3 c 0,4.7 -3.8,8.3 -8.3,8.3 -4.4,0 -8.3,-3.8 -8.3,-8.3 l 0,-41.7 c -0.3,-4.4 3.3,-8.6 7.7,-8.9 0.3,0 0.3,0 0.6,0 3.8,0 7.1,2.4 8,6.2 l 0,0 c 3.8,-4.7 9.8,-7.1 15.7,-6.8 12.7,0 19.8,8.9 19.8,21.6 l 0,29.6 c 0,4.7 -3.8,8.3 -8.3,8.3 -4.3,0.1 -8.8,-3.5 -8.8,-8.2 z"
       class="st1"
       inkscape:connector-curvature="0"
       style="fill:#ffffff" /><path
       id="path25"
       d="m 314.4,69.8 c -1.5,-4.4 -2.1,-9.2 -1.8,-13.9 -0.3,-4.7 0.3,-9.5 1.8,-13.9 3.6,-11 12.4,-16.6 24.9,-16.6 6.8,-0.3 13.3,2.1 18.3,6.5 2.1,1.8 3.3,4.1 3.3,6.8 0,3.8 -3.3,7.1 -7.1,7.1 l -0.3,0 c -2.7,-0.3 -5,-1.5 -6.8,-3.6 -1.8,-1.8 -4.4,-2.7 -7.1,-2.7 -4.1,-0.3 -8,2.4 -8.9,6.5 -0.9,3.3 -1.2,6.5 -1.2,9.8 0,3.3 0.3,6.5 1.2,9.8 0.9,4.1 4.7,6.8 8.9,6.5 2.7,0 5.3,-0.9 7.1,-2.7 1.8,-2.1 4.1,-3.3 6.8,-3.6 3.8,-0.3 7.1,3 7.4,6.8 l 0,0.4 c 0,2.7 -1.2,5 -3.3,6.8 -5,4.4 -11.5,6.8 -18.3,6.5 -12.5,0 -21.4,-5.6 -24.9,-16.5 z"
       class="st1"
       inkscape:connector-curvature="0"
       style="fill:#ffffff" /><path
       id="path27"
       d="m 366.8,11.5 c 0,-5.3 4.1,-9.5 9.5,-9.5 5.4,0 9.5,4.1 9.5,9.5 0,5.4 -4.1,9.5 -9.5,9.5 -5.4,0 -9.5,-4.2 -9.5,-9.5 z m 1.1,65.4 0,-41.8 c 0,-4.7 3.8,-8.3 8.3,-8.3 4.4,0 8.3,3.8 8.3,8.3 l 0,41.7 c 0,4.7 -3.8,8.3 -8.3,8.3 -4.4,0.1 -8.3,-3.5 -8.3,-8.2 z"
       class="st1"
       inkscape:connector-curvature="0"
       style="fill:#ffffff" /><path
       id="path29"
       d="m 448.1,78.1 c -0.3,4.7 -4.4,8.3 -9.2,7.7 -2.4,-0.3 -4.7,-1.5 -6.2,-3.3 l -1.5,-2.1 0,0 c -3,3.8 -9.2,5.9 -16.6,5.9 -14.8,0 -22.2,-6.8 -22.2,-17.8 0,-11 9.5,-18.6 24,-18.6 l 10.4,0 c 0.3,0 0.6,-0.3 0.6,-0.6 l 0,-0.6 c 0,-5.3 -3.8,-8.6 -11.8,-8.6 -3.3,0 -6.5,0.6 -9.5,1.8 l -3.8,0.9 c -3.6,0.3 -6.5,-2.7 -6.8,-6.2 0,-0.3 0,-0.3 0,-0.6 0,-3 1.8,-5.6 4.4,-6.8 5.6,-2.4 11.5,-3.6 17.8,-3.3 17.5,0 26,8.9 26,23.4 l 0,16 c -0.3,2.1 0.3,3.8 1.2,5.6 l 1.5,2.7 c 0.9,1.2 1.4,3 1.7,4.5 z M 428,65.9 l 0,-4.1 c 0,-0.3 -0.3,-0.6 -0.6,-0.6 l -8.3,0 c -7.1,0 -10.4,2.1 -10.4,6.5 0,4.4 3,6.2 8.3,6.2 5.3,0 11,-3 11,-8.3 l 0,0.3 z"
       class="st1"
       inkscape:connector-curvature="0"
       style="fill:#ffffff" /></g></svg>